<mxfile host="app.diagrams.net" modified="2023-11-13T22:19:13.133Z" agent="Mozilla/5.0 (Windows NT 10.0; Win64; x64) AppleWebKit/537.36 (KHTML, like Gecko) Chrome/119.0.0.0 Safari/537.36" etag="5hPdJ-d0vdV8BTMgHEPl" version="22.1.0" type="device">
  <diagram name="Page-1" id="dYs_9sJ-cOXFTvx8AZwM">
    <mxGraphModel dx="738" dy="441" grid="1" gridSize="10" guides="1" tooltips="1" connect="1" arrows="1" fold="1" page="1" pageScale="1" pageWidth="850" pageHeight="1100" math="0" shadow="0">
      <root>
        <mxCell id="0" />
        <mxCell id="1" parent="0" />
        <mxCell id="9BTcXQPascztsNKqXj8_-43" style="edgeStyle=orthogonalEdgeStyle;rounded=0;orthogonalLoop=1;jettySize=auto;html=1;exitX=0.855;exitY=0.855;exitDx=0;exitDy=0;exitPerimeter=0;entryX=0.145;entryY=0.855;entryDx=0;entryDy=0;entryPerimeter=0;fillColor=#e51400;strokeColor=#B20000;" edge="1" parent="1" target="9BTcXQPascztsNKqXj8_-28">
          <mxGeometry relative="1" as="geometry">
            <mxPoint x="531.7" y="424.20000000000005" as="sourcePoint" />
            <Array as="points">
              <mxPoint x="532" y="470" />
              <mxPoint x="606" y="470" />
            </Array>
          </mxGeometry>
        </mxCell>
        <mxCell id="9BTcXQPascztsNKqXj8_-48" value="4" style="strokeWidth=2;html=1;shape=mxgraph.flowchart.start_2;whiteSpace=wrap;" vertex="1" parent="1">
          <mxGeometry x="647.5" y="520" width="40" height="40" as="geometry" />
        </mxCell>
        <mxCell id="9BTcXQPascztsNKqXj8_-49" value="1" style="strokeWidth=2;html=1;shape=mxgraph.flowchart.start_2;whiteSpace=wrap;" vertex="1" parent="1">
          <mxGeometry x="450" y="520" width="40" height="40" as="geometry" />
        </mxCell>
        <mxCell id="9BTcXQPascztsNKqXj8_-50" value="2" style="strokeWidth=2;html=1;shape=mxgraph.flowchart.start_2;whiteSpace=wrap;" vertex="1" parent="1">
          <mxGeometry x="500" y="520" width="40" height="40" as="geometry" />
        </mxCell>
        <mxCell id="9BTcXQPascztsNKqXj8_-51" value="3" style="strokeWidth=2;html=1;shape=mxgraph.flowchart.start_2;whiteSpace=wrap;" vertex="1" parent="1">
          <mxGeometry x="600" y="520" width="40" height="40" as="geometry" />
        </mxCell>
        <mxCell id="9BTcXQPascztsNKqXj8_-52" value="" style="shape=partialRectangle;whiteSpace=wrap;html=1;bottom=1;right=1;left=1;top=0;fillColor=none;routingCenterX=-0.5;rotation=90;" vertex="1" parent="1">
          <mxGeometry x="350" y="530" width="90" height="20" as="geometry" />
        </mxCell>
        <mxCell id="9BTcXQPascztsNKqXj8_-53" value="" style="shape=partialRectangle;whiteSpace=wrap;html=1;bottom=1;right=1;left=1;top=0;fillColor=none;routingCenterX=-0.5;rotation=-90;" vertex="1" parent="1">
          <mxGeometry x="647.5" y="530" width="90" height="20" as="geometry" />
        </mxCell>
        <mxCell id="9BTcXQPascztsNKqXj8_-54" value="5" style="strokeWidth=2;html=1;shape=mxgraph.flowchart.start_2;whiteSpace=wrap;" vertex="1" parent="1">
          <mxGeometry x="550" y="520" width="40" height="40" as="geometry" />
        </mxCell>
        <mxCell id="9BTcXQPascztsNKqXj8_-72" style="edgeStyle=orthogonalEdgeStyle;rounded=0;orthogonalLoop=1;jettySize=auto;html=1;exitX=0.855;exitY=0.855;exitDx=0;exitDy=0;exitPerimeter=0;entryX=0.145;entryY=0.855;entryDx=0;entryDy=0;entryPerimeter=0;" edge="1" parent="1" source="9BTcXQPascztsNKqXj8_-49" target="9BTcXQPascztsNKqXj8_-54">
          <mxGeometry relative="1" as="geometry">
            <Array as="points">
              <mxPoint x="484" y="580" />
              <mxPoint x="556" y="580" />
            </Array>
          </mxGeometry>
        </mxCell>
        <mxCell id="9BTcXQPascztsNKqXj8_-105" value="0" style="strokeWidth=2;html=1;shape=mxgraph.flowchart.start_2;whiteSpace=wrap;" vertex="1" parent="1">
          <mxGeometry x="400" y="520" width="40" height="40" as="geometry" />
        </mxCell>
        <mxCell id="9BTcXQPascztsNKqXj8_-114" style="edgeStyle=orthogonalEdgeStyle;rounded=0;orthogonalLoop=1;jettySize=auto;html=1;exitX=0.855;exitY=0.855;exitDx=0;exitDy=0;exitPerimeter=0;entryX=0.145;entryY=0.855;entryDx=0;entryDy=0;entryPerimeter=0;" edge="1" parent="1" source="9BTcXQPascztsNKqXj8_-105" target="9BTcXQPascztsNKqXj8_-54">
          <mxGeometry relative="1" as="geometry">
            <Array as="points">
              <mxPoint x="434" y="600" />
              <mxPoint x="556" y="600" />
            </Array>
          </mxGeometry>
        </mxCell>
        <mxCell id="9BTcXQPascztsNKqXj8_-124" style="edgeStyle=orthogonalEdgeStyle;rounded=0;orthogonalLoop=1;jettySize=auto;html=1;exitX=0.855;exitY=0.855;exitDx=0;exitDy=0;exitPerimeter=0;entryX=0.145;entryY=0.855;entryDx=0;entryDy=0;entryPerimeter=0;" edge="1" parent="1" source="9BTcXQPascztsNKqXj8_-54" target="9BTcXQPascztsNKqXj8_-51">
          <mxGeometry relative="1" as="geometry">
            <Array as="points">
              <mxPoint x="584" y="580" />
              <mxPoint x="606" y="580" />
            </Array>
          </mxGeometry>
        </mxCell>
      </root>
    </mxGraphModel>
  </diagram>
</mxfile>
